<?xml version="1.0" standalone="no"?>
<!DOCTYPE svg PUBLIC "-//W3C//DTD SVG 1.1//EN" "http://www.w3.org/Graphics/SVG/1.1/DTD/svg11.dtd" >
<svg xmlns="http://www.w3.org/2000/svg">
<metadata></metadata>
<defs>
<font id="breuer_condensedbold" horiz-adv-x="915" >
<font-face units-per-em="2048" ascent="1536" descent="-512" />
<missing-glyph horiz-adv-x="360" />
<glyph horiz-adv-x="2048" />
<glyph horiz-adv-x="2048" />
<glyph unicode="&#xd;" horiz-adv-x="0" />
<glyph unicode=" "  horiz-adv-x="360" />
<glyph unicode="&#x09;" horiz-adv-x="360" />
<glyph unicode="&#xa0;" horiz-adv-x="360" />
<glyph unicode="!" horiz-adv-x="462" d="M92 1331h279l-52 -878h-176zM109 0v287h245v-287h-245z" />
<glyph unicode="&#x22;" horiz-adv-x="729" d="M82 1331h242l-43 -626h-156zM406 1331h241l-43 -626h-155z" />
<glyph unicode="#" horiz-adv-x="948" d="M72 328l12 133h143l37 409h-145l12 134h145l29 327h144l-29 -327h168l28 327h144l-29 -327h146l-13 -134h-145l-37 -409h147l-12 -133h-145l-29 -328h-143l28 328h-168l-28 -328h-144l29 328h-145zM371 461h168l36 409h-167z" />
<glyph unicode="$" horiz-adv-x="819" d="M63 473h232q0 -74 27.5 -102.5t93.5 -28.5q61 0 88.5 29.5t27.5 85.5q0 37 -6 60.5t-22.5 39.5t-47 24.5t-79.5 14.5q-92 8 -151.5 31.5t-93.5 60.5t-47 90t-13 121q0 135 64.5 211t185.5 96v166h184v-166q133 -16 188.5 -89t55.5 -234h-232q0 20 -2 42.5t-12 41 t-31.5 31t-60.5 12.5q-66 0 -86.5 -33t-20.5 -80q0 -61 24.5 -90t96.5 -37q100 -12 166.5 -33.5t104.5 -57.5t53.5 -89t15.5 -129q0 -53 -7 -105.5t-33 -95.5t-78 -73.5t-142 -41.5v-186h-184v186q-150 18 -204.5 99.5t-54.5 228.5z" />
<glyph unicode="%" horiz-adv-x="1040" d="M61 1065q0 162 56.5 226.5t171.5 64.5t171 -64.5t56 -226.5q0 -82 -14.5 -137.5t-42 -89t-70.5 -48t-100 -14.5t-100.5 14.5t-71 48t-42 89t-14.5 137.5zM111 0l669 1331h150l-670 -1331h-149zM211 1065q0 -100 18.5 -133t59.5 -33t59.5 33t18.5 133t-18.5 134t-59.5 34 t-59.5 -34t-18.5 -134zM524 264q0 162 56.5 226.5t171.5 64.5t171 -64.5t56 -226.5q0 -82 -14.5 -137t-42 -89t-70.5 -48.5t-100 -14.5t-100.5 14.5t-71 48.5t-42 89t-14.5 137zM674 264q0 -100 18.5 -133t59.5 -33t59 33t18 133t-18 134t-59 34t-59.5 -33.5t-18.5 -134.5z " />
<glyph unicode="&#x26;" horiz-adv-x="970" d="M63 356q0 119 51.5 201t143.5 125q-84 47 -128 130t-44 181q0 186 83 274.5t259 88.5q94 0 160.5 -18.5t109.5 -61.5t62.5 -113.5t19.5 -177.5h-237q0 92 -28 123t-87 31q-53 0 -78.5 -36t-25.5 -128q0 -193 102 -193h481v-213h-100v-211q0 -84 27.5 -112.5t80.5 -28.5 v-217q-92 0 -147 23.5t-90 85.5q-37 -57 -98.5 -95.5t-147.5 -38.5q-195 0 -282 90.5t-87 290.5zM301 383q0 -111 35.5 -150.5t101.5 -39.5q61 0 96 47t35 157v172h-149q-51 0 -85 -43t-34 -143z" />
<glyph unicode="'" horiz-adv-x="405" d="M82 1331h242l-43 -626h-156z" />
<glyph unicode="(" horiz-adv-x="540" d="M82 584q0 236 61.5 447.5t173.5 381.5h162q-98 -152 -154.5 -362.5t-56.5 -466.5q0 -258 56.5 -467t154.5 -363h-162q-113 170 -174 381t-61 449z" />
<glyph unicode=")" horiz-adv-x="540" d="M61 -246q98 154 154.5 363t56.5 467q0 256 -56 467t-155 362h162q113 -170 174.5 -382t61.5 -447q0 -238 -61.5 -449t-174.5 -381h-162z" />
<glyph unicode="*" horiz-adv-x="897" d="M61 1001l78 238l273 -182l-88 315h249l-88 -315l273 182l78 -238l-328 -14l258 -203l-203 -147l-114 307l-115 -307l-203 147l258 203z" />
<glyph unicode="+" horiz-adv-x="825" d="M82 473v180h248v332h172v-332h248v-180h-248v-332h-172v332h-248z" />
<glyph unicode="," horiz-adv-x="409" d="M92 -266v565h246l-90 -565h-156z" />
<glyph unicode="-" horiz-adv-x="575" d="M82 465v213h412v-213h-412z" />
<glyph unicode="." horiz-adv-x="430" d="M92 0v287h246v-287h-246z" />
<glyph unicode="/" horiz-adv-x="542" d="M41 -82l268 1495h193l-269 -1495h-192z" />
<glyph unicode="0" horiz-adv-x="909" d="M72 430v479q0 244 93 345.5t290 101.5t290 -101.5t93 -345.5v-479q0 -244 -94.5 -349.5t-288.5 -105.5q-195 0 -289 105.5t-94 349.5zM309 412q0 -123 31 -171t115 -48t114.5 48t30.5 171v506q0 66 -8 108.5t-25.5 67t-45 35t-66.5 10.5t-67 -10.5t-45 -35t-25.5 -67.5 t-8.5 -108v-506z" />
<glyph unicode="1" horiz-adv-x="600" d="M41 1114v148l260 69h145v-1331h-237v1114h-168z" />
<glyph unicode="2" horiz-adv-x="882" d="M72 0v176q0 119 28.5 202t74.5 141.5t102.5 96t109.5 68.5q37 23 73 45.5t62.5 51t43 66.5t16.5 89q0 100 -28 151.5t-105 51.5q-72 0 -104 -47.5t-32 -157.5h-237q0 115 25.5 195.5t72.5 131t116.5 73t158.5 22.5q106 0 176.5 -30t113.5 -84t61.5 -131t18.5 -173 q0 -90 -24.5 -154.5t-64.5 -112.5t-91 -82t-102 -65q-66 -37 -108 -67.5t-67.5 -64.5t-36 -75t-10.5 -100h510v-217h-753z" />
<glyph unicode="3" horiz-adv-x="892" d="M57 385h238q0 -100 35.5 -146t113.5 -46q84 0 116 49t32 143q0 66 -14.5 102.5t-36 55t-45 22.5t-43.5 4h-111v213h98q31 0 54.5 6.5t41 27t26.5 56t9 95.5q0 78 -26.5 125t-106.5 47q-76 0 -107.5 -44t-31.5 -145h-233q0 205 87 305.5t285 100.5q109 0 180.5 -29 t114.5 -79t60.5 -120.5t17.5 -154.5q0 -98 -48 -175t-132 -116q92 -35 146 -111.5t54 -193.5q0 -90 -15 -164t-58 -126t-119 -82t-195 -30q-207 0 -297 98.5t-90 311.5z" />
<glyph unicode="4" horiz-adv-x="899" d="M41 270v211l410 850h294v-844h113v-217h-113v-270h-237v270h-467zM242 487h266v570z" />
<glyph unicode="5" horiz-adv-x="878" d="M51 391h238q0 -104 35.5 -151t111.5 -47t110 56t34 197q0 70 -7.5 116t-24 73t-44 37t-68.5 10q-29 0 -62.5 -18.5t-54.5 -40.5h-235l47 708h631v-217h-424l-21 -303q84 55 179 55q74 0 133 -18.5t101 -65.5t64.5 -129t22.5 -207q0 -113 -18.5 -199.5t-63.5 -147 t-117.5 -92.5t-181.5 -32q-207 0 -296 101.5t-89 314.5z" />
<glyph unicode="6" horiz-adv-x="892" d="M72 414v516q0 217 89 321.5t281 104.5q203 0 289 -96.5t86 -290.5h-235q0 86 -31 128t-107 42q-61 0 -98 -41t-37 -160v-193q41 29 92.5 47.5t110.5 18.5q176 0 247.5 -100.5t71.5 -294.5q0 -94 -17 -175t-60 -139.5t-117 -92.5t-186 -34q-115 0 -189 35t-116 94.5 t-58 139.5t-16 170zM309 422q0 -113 26.5 -171t110.5 -58q47 0 76 15t45.5 44t21.5 69.5t5 92.5q0 119 -28.5 170t-110.5 51q-41 0 -81 -19.5t-65 -48.5v-145z" />
<glyph unicode="7" horiz-adv-x="804" d="M51 1114v217h703v-188l-330 -1143h-248l336 1114h-461z" />
<glyph unicode="8" horiz-adv-x="892" d="M51 350q0 137 55.5 217t133.5 115q-76 45 -120 123t-44 190q0 195 92 278t278 83t278.5 -83t92.5 -278q0 -113 -44 -190.5t-120 -122.5q78 -35 133.5 -115t55.5 -217q0 -201 -97.5 -288t-298.5 -87t-298 87.5t-97 287.5zM289 379q0 -100 39.5 -143t117.5 -43t118 43 t40 143q0 61 -11 100t-32.5 60.5t-50.5 30t-64 8.5t-63.5 -8.5t-50 -30t-32.5 -60.5t-11 -100zM311 954q0 -55 11.5 -90t30 -55.5t42.5 -28.5t51 -8t51.5 8t43 28.5t30 55.5t11.5 90q0 106 -32 145.5t-104 39.5t-103.5 -39t-31.5 -146z" />
<glyph unicode="9" horiz-adv-x="892" d="M61 926q0 94 17.5 173t60.5 136t117 89t186 32q115 0 189 -34t115.5 -93.5t58 -138t16.5 -168.5v-521q0 -215 -89 -320.5t-281 -105.5q-209 0 -292 97.5t-83 298.5h237q0 -88 31 -133t107 -45q70 0 101.5 40.5t31.5 157.5v205q-45 -31 -95.5 -48.5t-109.5 -17.5 q-176 0 -247 100.5t-71 295.5zM299 922q0 -119 28.5 -166t110.5 -47q43 0 81 18t65 51v129q0 113 -27 172.5t-111 59.5q-47 0 -75.5 -15.5t-45 -43t-21.5 -67.5t-5 -91z" />
<glyph unicode=":" horiz-adv-x="430" d="M92 0v287h246v-287h-246zM92 573v287h246v-287h-246z" />
<glyph unicode=";" horiz-adv-x="430" d="M92 -266v565h246l-90 -565h-156zM92 573v287h246v-287h-246z" />
<glyph unicode="&#x3c;" horiz-adv-x="616" d="M61 666l318 747h176l-324 -747l324 -748h-176z" />
<glyph unicode="=" horiz-adv-x="825" d="M82 262v180h668v-180h-668zM82 684v180h668v-180h-668z" />
<glyph unicode="&#x3e;" horiz-adv-x="616" d="M61 -82l324 748l-324 747h177l317 -747l-317 -748h-177z" />
<glyph unicode="?" horiz-adv-x="862" d="M72 967q0 205 85 297t279 92q193 0 279 -94.5t86 -296.5q0 -106 -18.5 -180t-53.5 -122.5t-86 -75t-117 -38.5l-12 -141h-158l-26 327q76 0 122 9.5t70.5 35t32.5 70.5t8 115q0 55 -10 88.5t-27.5 52t-40 26t-49.5 7.5q-29 0 -52.5 -6.5t-40.5 -24.5t-27.5 -52t-10.5 -89 h-233zM311 0v287h246v-287h-246z" />
<glyph unicode="@" horiz-adv-x="1265" d="M100 346v303q0 135 33 245t99.5 185.5t168 116.5t238.5 41q272 0 405.5 -157.5t133.5 -430.5v-303q0 -272 -133.5 -430t-405.5 -158q-137 0 -238.5 41t-168 117t-99.5 185.5t-33 244.5zM264 354q0 -231 92.5 -333.5t282.5 -102.5t282.5 102.5t92.5 333.5v287 q0 229 -92.5 332.5t-282.5 103.5t-282.5 -103.5t-92.5 -332.5v-287zM377 342q0 92 47 145.5t145 61.5l154 12v84q0 55 -20.5 80t-61.5 25q-43 0 -60.5 -25t-17.5 -74h-164q0 117 57.5 177.5t184.5 60.5q135 0 190.5 -60.5t55.5 -183.5v-489h-123l-25 55q-74 -78 -164 -78 q-96 0 -147 55.5t-51 153.5zM543 365q0 -43 20 -63.5t45 -20.5q61 0 115 61v127l-115 -16q-66 -10 -65 -88z" />
<glyph unicode="A" horiz-adv-x="868" d="M20 0l265 1331h299l264 -1331h-244l-43 262h-254l-43 -262h-244zM342 475h184l-61 371q-10 72 -17.5 131t-13.5 121q-6 -61 -13 -120.5t-18 -131.5z" />
<glyph unicode="B" horiz-adv-x="911" d="M102 0v1331h379q100 0 167 -20.5t107 -62.5t57 -106.5t17 -152.5q0 -113 -45 -183.5t-96 -109.5q78 -41 125 -121.5t47 -203.5q0 -170 -84 -270.5t-272 -100.5h-402zM340 217h158q57 0 90 37t33 139q0 100 -38 138t-91 38h-152v-352zM340 782h133q59 0 89 37t30 129 q0 88 -28.5 127t-88.5 39h-135v-332z" />
<glyph unicode="C" horiz-adv-x="880" d="M72 432v469q0 240 90 347.5t287 107.5q195 0 282.5 -99.5t87.5 -328.5h-233q0 117 -31 164t-106 47q-141 0 -142 -213v-520q1 -213 142 -213q74 0 105.5 46t31.5 164h233q0 -229 -87 -328.5t-283 -99.5q-199 0 -288 109t-89 348z" />
<glyph unicode="D" horiz-adv-x="927" d="M102 0v1331h357q98 0 173 -18.5t125 -69.5t74.5 -143t24.5 -238v-389q0 -145 -24.5 -237.5t-74.5 -144.5t-125 -71.5t-173 -19.5h-357zM340 217h115q51 0 82.5 13.5t50 43t24.5 78.5t6 121v395q0 70 -7 117t-25.5 76t-50 41t-80.5 12h-115v-897z" />
<glyph unicode="E" horiz-adv-x="817" d="M102 0v1331h643v-217h-405v-332h352v-213h-352v-352h405v-217h-643z" />
<glyph unicode="F" horiz-adv-x="765" d="M102 0v1331h613v-217h-375v-332h319v-213h-319v-569h-238z" />
<glyph unicode="G" d="M72 432v465q0 242 90 350.5t284 108.5q199 0 289 -100.5t90 -327.5h-237q0 211 -139 211q-141 0 -142 -213v-520q0 -213 144 -213q70 0 107.5 51t37.5 159v166h-162v213h400v-782h-127l-29 90q-39 -53 -95.5 -84t-140.5 -31q-195 0 -282.5 109t-87.5 348z" />
<glyph unicode="H" horiz-adv-x="944" d="M102 0v1331h238v-549h264v549h238v-1331h-238v569h-264v-569h-238z" />
<glyph unicode="I" horiz-adv-x="442" d="M102 0v1331h238v-1331h-238z" />
<glyph unicode="J" horiz-adv-x="614" d="M61 2v221q25 -10 64 -19t68 -9q51 0 66 29.5t15 99.5v790h-149v217h387v-1003q0 -86 -8 -151.5t-38 -111t-87 -68t-156 -22.5q-39 0 -80 7.5t-82 19.5z" />
<glyph unicode="K" horiz-adv-x="845" d="M102 0v1331h234v-545q14 41 34.5 98.5t39.5 98.5l151 348h266l-311 -643l320 -688h-267l-161 371q-23 47 -42.5 103t-29.5 91v-565h-234z" />
<glyph unicode="L" horiz-adv-x="692" d="M102 0v1331h238v-1114h311v-217h-549z" />
<glyph unicode="M" horiz-adv-x="1224" d="M102 0v1331h342l119 -655q16 -98 28.5 -174t20.5 -148q8 72 20.5 148t29.5 174l118 655h342v-1331h-223v674q0 74 2 134t3 110.5t3 94.5t2 87q-6 -41 -15 -96.5t-18.5 -114t-18.5 -114.5t-17 -99l-123 -676h-209l-123 676q-8 43 -17.5 99t-18.5 114.5t-18 114t-16 96.5 q0 -43 2 -87t3.5 -94.5t3.5 -110.5t2 -134v-674h-224z" />
<glyph unicode="N" horiz-adv-x="968" d="M102 0v1331h285l176 -624q25 -86 47.5 -175.5t40.5 -171.5q-2 45 -5 95.5t-5 97.5t-3 89t-1 71v618h229v-1331h-284l-176 625q-25 86 -47.5 175t-41.5 171q2 -47 5.5 -96.5t5.5 -96.5t3 -89t1 -71v-618h-230z" />
<glyph unicode="O" d="M72 428v475q0 231 90 342t295 111t296 -109.5t91 -343.5v-475q0 -231 -91 -342t-296 -111t-295 111t-90 342zM309 420q0 -117 35 -172t113 -55t113.5 55t35.5 172v491q0 117 -35.5 172.5t-113.5 55.5q-147 0 -148 -226v-493z" />
<glyph unicode="P" horiz-adv-x="890" d="M102 0v1331h359q94 0 164.5 -17.5t119 -64.5t72 -131t23.5 -219q0 -125 -23.5 -207t-70 -131t-117 -68.5t-164.5 -19.5h-125v-473h-238zM340 686h121q72 0 106.5 43t34.5 170q0 123 -33.5 169t-105.5 46h-123v-428z" />
<glyph unicode="Q" d="M72 428v475q0 231 90 342t295 111t296 -109.5t91 -343.5v-475q0 -201 -67.5 -310.5t-219.5 -133.5q4 -41 29.5 -59.5t54.5 -18.5h86l-39 -129h-90q-98 0 -168 46t-74 161q-150 25 -217 134t-67 310zM309 420q0 -117 35 -172t113 -55t113.5 55t35.5 172v491 q0 117 -35.5 172.5t-113.5 55.5q-147 0 -148 -226v-493z" />
<glyph unicode="R" horiz-adv-x="907" d="M102 0v1331h359q96 0 166.5 -17.5t118 -64.5t70 -131t22.5 -219q0 -162 -43 -255t-129 -136l190 -508h-256l-160 473h-100v-473h-238zM340 686h121q72 0 104.5 43t32.5 170q0 123 -31.5 169t-103.5 46h-123v-428z" />
<glyph unicode="S" horiz-adv-x="897" d="M61 393h238q0 -111 35 -155.5t110 -44.5q80 0 114 43.5t34 154.5q0 74 -43 119t-164 74q-74 18 -131 45.5t-97 73t-60.5 111t-20.5 161.5q0 174 88 277.5t278 103.5q104 0 175 -23.5t115 -72t62.5 -122t18.5 -171.5h-238q0 86 -30.5 129t-102.5 43q-70 0 -99.5 -42 t-29.5 -122q0 -94 41 -137t146 -68q92 -23 155.5 -53.5t102.5 -75.5t55 -105.5t16 -142.5q0 -117 -26.5 -196.5t-76.5 -129t-122 -71t-160 -21.5q-102 0 -174.5 22.5t-119 73t-68 130.5t-21.5 192z" />
<glyph unicode="T" horiz-adv-x="733" d="M20 1114v217h693v-217h-228v-1114h-237v1114h-228z" />
<glyph unicode="U" horiz-adv-x="954" d="M102 424v907h238v-923q0 -111 30.5 -162t106.5 -51t106.5 51t30.5 162v923h238v-907q0 -129 -23.5 -215t-71.5 -138.5t-118 -74t-162 -21.5t-161.5 21.5t-117.5 74t-72 138.5t-24 215z" />
<glyph unicode="V" horiz-adv-x="847" d="M10 1331h250l121 -770q10 -63 17.5 -111.5t11.5 -86t7 -68.5t7 -62q2 31 6 62t8 68.5t11.5 86t17.5 111.5l121 770h250l-267 -1331h-295z" />
<glyph unicode="W" horiz-adv-x="1323" d="M41 1331h238l81 -751q10 -92 17.5 -181.5t13.5 -169.5q6 80 14.5 169t18.5 182l96 751h283l96 -751q10 -92 18.5 -181.5t14.5 -169.5q6 80 13 169t18 182l81 751h238l-195 -1331h-309l-90 776q-10 86 -16 167t-10 161q-4 -80 -10.5 -161t-16.5 -167l-90 -776h-309z" />
<glyph unicode="X" horiz-adv-x="823" d="M10 0l269 686l-263 645h258l88 -284q16 -53 30 -99.5t20 -87.5q6 41 19 87t30 100l88 284h258l-262 -645l268 -686h-258l-90 299q-16 59 -29.5 105.5t-23.5 93.5q-10 -47 -23.5 -93.5t-30.5 -105.5l-90 -299h-258z" />
<glyph unicode="Y" horiz-adv-x="831" d="M10 1331h254l90 -321q20 -76 36 -146.5t26 -128.5q10 57 25.5 128t35.5 145l90 323h254l-286 -829v-502h-238v502z" />
<glyph unicode="Z" horiz-adv-x="804" d="M61 0v193l418 921h-401v217h659v-192l-418 -922h435v-217h-693z" />
<glyph unicode="[" horiz-adv-x="518" d="M102 -250v1667h334v-133h-166v-1401h166v-133h-334z" />
<glyph unicode="\" horiz-adv-x="542" d="M41 1413h192l269 -1495h-193z" />
<glyph unicode="]" horiz-adv-x="518" d="M82 -117h166v1401h-166v133h334v-1667h-334v133z" />
<glyph unicode="^" horiz-adv-x="778" d="M76 719l211 612h211l211 -612h-201l-117 405l-117 -405h-198z" />
<glyph unicode="_" horiz-adv-x="761" d="M82 0v217h598v-217h-598z" />
<glyph unicode="`" horiz-adv-x="417" d="M61 1384h234l61 -237h-168z" />
<glyph unicode="a" horiz-adv-x="864" d="M72 274q0 135 59 210t205 89l217 21v100q0 78 -25.5 111t-87.5 33q-66 0 -89 -33t-23 -105h-230q0 174 78 261.5t262 87.5q188 0 266 -88.5t78 -266.5v-694h-170l-30 78q-106 -102 -242 -103q-135 0 -201.5 79t-66.5 220zM303 301q0 -57 21.5 -86t58.5 -29q90 0 170 86 v179l-172 -27q-78 -12 -78 -123z" />
<glyph unicode="b" horiz-adv-x="880" d="M92 0v1372h230v-401q53 41 106 59.5t100 18.5q61 0 112.5 -16.5t88.5 -63.5t58.5 -130t21.5 -214v-226q0 -133 -20.5 -216t-58.5 -129t-89 -62.5t-113 -16.5q-49 0 -110.5 20.5t-124.5 82.5l-31 -78h-170zM322 274q31 -39 71.5 -64.5t83.5 -25.5q51 0 77 40t26 157v262 q0 117 -26 157t-77 40q-43 0 -84 -26t-71 -64v-476z" />
<glyph unicode="c" horiz-adv-x="837" d="M72 446v132q0 137 22.5 228t66.5 144.5t111.5 76t159.5 22.5q82 0 146.5 -17.5t108.5 -60.5t66.5 -118t22.5 -187h-229q0 106 -30 140t-85 34q-78 0 -104.5 -54.5t-26.5 -187.5v-172q0 -70 6 -117t21.5 -74.5t41 -39t62.5 -11.5q57 0 86 35t29 139h229 q0 -113 -23.5 -186.5t-68.5 -117.5t-108.5 -61.5t-143.5 -17.5q-92 0 -159.5 22.5t-112.5 78t-66.5 145.5t-21.5 225z" />
<glyph unicode="d" horiz-adv-x="880" d="M72 399v226q0 131 21.5 214t58 130t88 63.5t112.5 16.5q47 0 100.5 -18.5t106.5 -59.5v401h229v-1372h-170l-30 78q-63 -61 -125 -82t-111 -21q-61 0 -112.5 16.5t-89 62.5t-58 129t-20.5 216zM301 381q0 -117 25.5 -157t76.5 -40q43 0 84 26t72 64v476q-31 39 -72 64.5 t-84 25.5q-51 0 -76.5 -40t-25.5 -157v-262z" />
<glyph unicode="e" horiz-adv-x="827" d="M61 451v127q0 137 22.5 228t67 144.5t112 76t159.5 22.5q86 0 150.5 -21.5t107.5 -76t64.5 -145.5t21.5 -233v-147h-479q0 -119 25.5 -180.5t107.5 -61.5q84 0 154.5 11.5t158.5 27.5v-209q-74 -16 -150.5 -27.5t-160.5 -11.5q-90 0 -157.5 21.5t-113 76t-68 145.5 t-22.5 233zM287 598h258q0 74 -8.5 121t-24.5 73.5t-39.5 37t-52.5 10.5q-78 0 -105.5 -54.5t-27.5 -187.5z" />
<glyph unicode="f" horiz-adv-x="546" d="M31 815v180l102 29v92q0 154 63.5 217.5t174.5 63.5q41 0 83 -7.5t72 -17.5v-207q-23 8 -45 13.5t-47 5.5q-29 0 -50.5 -20.5t-21.5 -73.5v-66h136v-209h-136v-815h-229v815h-102z" />
<glyph unicode="g" horiz-adv-x="880" d="M72 424v201q0 133 20.5 216t58 129t89 62.5t112.5 16.5q49 0 110.5 -20.5t125.5 -82.5l30 78h170v-1038q0 -100 -20 -170t-64.5 -113t-111 -62.5t-158.5 -19.5q-27 0 -59.5 2t-68.5 7t-70.5 13.5t-65.5 18.5v215q137 -47 260 -47q66 0 97.5 35t31.5 121v92 q-53 -41 -106.5 -59.5t-100.5 -18.5q-61 0 -112.5 16.5t-88 63.5t-58 129t-21.5 215zM301 406q0 -117 25.5 -157t76.5 -40q43 0 84 25.5t72 64.5v451q-31 39 -72 64.5t-84 25.5q-51 0 -76.5 -40t-25.5 -157v-237z" />
<glyph unicode="h" horiz-adv-x="866" d="M92 0v1372h230v-401q98 78 219 78q66 0 111.5 -18.5t75.5 -60.5t43 -112t13 -170v-688h-229v680q0 92 -19.5 125t-72.5 33q-31 0 -69 -21.5t-72 -58.5v-758h-230z" />
<glyph unicode="i" horiz-adv-x="413" d="M92 0v1024h230v-1024h-230zM92 1133v239h230v-239h-230z" />
<glyph unicode="j" horiz-adv-x="413" d="M-55 -141q18 -4 45.5 -8.5t48.5 -4.5q29 0 41 20.5t12 74.5v1083h230v-1110q0 -162 -55.5 -224.5t-166.5 -62.5q-45 0 -85 7.5t-70 17.5v207zM92 1133v239h230v-239h-230z" />
<glyph unicode="k" horiz-adv-x="788" d="M92 0v1372h230v-731l188 383h258l-272 -481l282 -543h-264l-197 442v-442h-225z" />
<glyph unicode="l" horiz-adv-x="413" d="M92 0v1372h230v-1372h-230z" />
<glyph unicode="m" horiz-adv-x="1249" d="M92 0v1024h170l27 -68q47 41 100 67t119 26q74 0 116 -19.5t76 -71.5q47 39 101.5 65t126.5 26q70 0 114.5 -18.5t71.5 -62.5t38 -116t11 -176v-676h-229v678q0 96 -18.5 128t-63.5 32q-20 0 -51 -16.5t-60 -39.5v-782h-227v678q0 96 -19.5 128t-64.5 32q-18 0 -50 -16.5 t-58 -39.5v-782h-230z" />
<glyph unicode="n" horiz-adv-x="870" d="M92 0v1024h170l31 -78q63 59 123.5 81t124.5 22q66 0 111.5 -18.5t75.5 -60.5t43 -112t13 -170v-688h-229v680q0 92 -19.5 125t-72.5 33q-31 0 -69 -20.5t-72 -59.5v-758h-230z" />
<glyph unicode="o" horiz-adv-x="847" d="M61 446v132q0 137 22.5 227t68 144.5t114 77t158.5 22.5t158.5 -22.5t113.5 -77t67.5 -144.5t22.5 -227v-132q0 -137 -22.5 -228t-67.5 -144.5t-112.5 -76t-159.5 -22.5t-159.5 22.5t-113 76t-68 144.5t-22.5 228zM291 426q0 -141 30.5 -191.5t102.5 -50.5t102.5 50.5 t30.5 191.5v172q0 141 -30.5 191.5t-102.5 50.5t-102.5 -50.5t-30.5 -191.5v-172z" />
<glyph unicode="p" horiz-adv-x="880" d="M92 -354v1378h170l31 -78q63 61 124.5 82t110.5 21q61 0 112.5 -16.5t89.5 -62.5t58.5 -129t20.5 -216v-226q0 -133 -21.5 -215t-58.5 -129t-88 -63.5t-113 -16.5q-47 0 -100 18.5t-106 59.5v-407h-230zM322 274q31 -39 71.5 -64.5t83.5 -25.5q51 0 77 40t26 157v262 q0 117 -26 157t-77 40q-43 0 -84 -26t-71 -64v-476z" />
<glyph unicode="q" horiz-adv-x="880" d="M72 399v226q0 133 20.5 216t58 129t89 62.5t112.5 16.5q49 0 110.5 -20.5t125.5 -82.5l30 78h170v-1378h-229v407q-53 -41 -106.5 -59.5t-100.5 -18.5q-61 0 -112.5 16.5t-88 63.5t-58 129t-21.5 215zM301 381q0 -117 25.5 -157t76.5 -40q43 0 84 26t72 64v476 q-31 39 -72 64.5t-84 25.5q-51 0 -76.5 -40t-25.5 -157v-262z" />
<glyph unicode="r" horiz-adv-x="559" d="M92 0v1024h170l31 -78q43 45 101.5 74t123.5 29v-240q-119 0 -196 -78v-731h-230z" />
<glyph unicode="s" horiz-adv-x="800" d="M51 309h221q0 -72 32 -100.5t93 -28.5q117 0 117 111q0 63 -31.5 93t-126.5 42q-90 12 -147 35.5t-89 62.5t-44.5 90.5t-12.5 118.5q0 160 84 238t248 78q94 0 157.5 -17.5t102.5 -57.5t56.5 -104.5t17.5 -158.5h-221q0 20 -3 42.5t-13.5 43t-33 34t-61.5 13.5 q-66 0 -87 -35t-21 -82q0 -61 25.5 -86t93.5 -35q98 -14 162.5 -36.5t102.5 -59.5t52 -90t14 -127q0 -59 -7 -115.5t-40 -101.5t-101.5 -73t-191.5 -28q-102 0 -169.5 20.5t-107.5 61.5t-55.5 104.5t-15.5 147.5z" />
<glyph unicode="t" horiz-adv-x="563" d="M31 815v180l102 29v233l229 54v-287h160v-209h-160v-536q0 -53 18.5 -73t47.5 -20q20 0 48 6.5t46 10.5v-201q-31 -10 -70.5 -18.5t-84.5 -8.5q-55 0 -98.5 13.5t-74 45.5t-46 86t-15.5 136v559h-102z" />
<glyph unicode="u" horiz-adv-x="876" d="M92 336v688h230v-680q0 -92 19 -125t73 -33q31 0 68.5 20.5t72.5 59.5v758h229v-1024h-170l-30 78q-63 -59 -124 -81t-124 -22q-66 0 -112 18.5t-75.5 60.5t-43 110.5t-13.5 171.5z" />
<glyph unicode="v" horiz-adv-x="782" d="M10 1024h248l76 -410q20 -104 33.5 -199.5t23.5 -178.5q10 84 23.5 179t34.5 199l75 410h248l-248 -1024h-266z" />
<glyph unicode="w" horiz-adv-x="1187" d="M27 1024h233l90 -723l113 723h262l113 -721l90 721h233l-186 -1024h-273l-108 748l-109 -748h-272z" />
<glyph unicode="x" horiz-adv-x="761" d="M10 0l246 518l-240 506h254l111 -317l108 317h254l-239 -506l248 -518h-260l-111 326q-29 -72 -57.5 -163t-55.5 -163h-258z" />
<glyph unicode="y" horiz-adv-x="784" d="M10 1024h246l143 -705q33 164 63 351.5t64 353.5h248l-295 -1151q-18 -68 -41.5 -116t-58.5 -78.5t-86 -44t-125 -13.5q-20 0 -58 6t-63 17v213q29 -10 60.5 -16.5t54.5 -6.5q41 0 67.5 23.5t40.5 83.5l15 57z" />
<glyph unicode="z" horiz-adv-x="757" d="M61 0v178l363 637h-348v209h618v-178l-364 -637h377v-209h-646z" />
<glyph unicode="{" horiz-adv-x="641" d="M61 520v127h109q29 0 42 20.5t13 73.5v428q0 76 12.5 125t40 77t70.5 38t105 10h106v-135h-106q-31 0 -45.5 -19.5t-14.5 -72.5v-420q0 -41 -5 -69.5t-17.5 -50t-29.5 -38t-42 -30.5q25 -16 42 -31.5t29.5 -36t17.5 -49.5t5 -70v-420q0 -53 14.5 -73.5t45.5 -20.5h106 v-133h-106q-61 0 -104.5 10.5t-71 38t-40 76.5t-12.5 125v426q0 53 -13 73.5t-42 20.5h-109z" />
<glyph unicode="|" horiz-adv-x="421" d="M123 -246v1659h176v-1659h-176z" />
<glyph unicode="}" horiz-adv-x="641" d="M82 -117h106q31 0 45.5 20.5t14.5 73.5v420q0 41 5 70t17.5 49.5t29.5 36t42 31.5q-25 14 -42 30.5t-29.5 38t-17.5 50t-5 69.5v420q0 53 -14.5 72.5t-45.5 19.5h-106v135h106q61 0 104.5 -10t71 -38t40 -77t12.5 -125v-428q0 -53 13 -73.5t42 -20.5h109v-127h-109 q-29 0 -42 -20.5t-13 -73.5v-426q0 -76 -12.5 -125t-40 -76.5t-70.5 -38t-105 -10.5h-106v133z" />
<glyph unicode="~" horiz-adv-x="753" d="M37 1055q0 92 14.5 150.5t41 92t65.5 46t88 12.5q47 0 81.5 -19.5t62.5 -43t51.5 -43t50.5 -19.5t41 19.5t14 80.5h176q0 -92 -14.5 -150.5t-41 -92t-65.5 -46t-88 -12.5q-47 0 -82 19.5t-62.5 43t-51 43t-50.5 19.5t-41 -19.5t-14 -80.5h-176z" />
<glyph unicode="&#xa1;" horiz-adv-x="462" d="M92 -311l51 882h176l52 -882h-279zM106 737v287h248v-287h-248z" />
<glyph unicode="&#xa2;" horiz-adv-x="854" d="M76 608v129q0 119 17.5 204t52 140.5t87 84t121.5 38.5v168h185v-170q59 -10 106 -32.5t79 -64.5t48 -107.5t16 -159.5h-229q0 55 -8 89t-22.5 52t-37 24.5t-49.5 6.5q-78 0 -104.5 -53.5t-26.5 -186.5v-188q0 -141 29 -190.5t102 -49.5q57 0 87 33t30 137h229 q0 -92 -16 -159.5t-49 -112.5t-79 -71t-105 -36v-174h-185v172q-70 10 -122 41t-86.5 88t-52 143t-17.5 205z" />
<glyph unicode="&#xa3;" horiz-adv-x="899" d="M88 0v217q88 0 127 44t39 161q0 35 -7 74t-16 73h-143v156h107q-20 61 -40 137t-20 146q0 348 336 348q84 0 146.5 -16.5t104.5 -57.5t62.5 -109.5t20.5 -173.5h-236q0 72 -21.5 106t-72.5 34q-53 0 -73.5 -34t-20.5 -112q0 -25 2 -50t5 -56t9 -70t15 -92h174v-156h-154 q4 -33 6 -59.5t2 -50.5q0 -72 -18.5 -130.5t-63.5 -111.5h170q57 0 77 33t20 119h237q0 -102 -14 -173t-48 -114t-87.5 -62.5t-132.5 -19.5h-492z" />
<glyph unicode="&#xa4;" horiz-adv-x="942" d="M61 119l111 139q-63 109 -63 340v131q0 229 65 336l-113 143l127 103l111 -140q66 29 172 29q96 0 172 -29l111 140l127 -103l-115 -143q68 -111 68 -336v-131q0 -117 -16.5 -200t-51.5 -138l115 -141l-127 -103l-111 138q-72 -27 -172 -27q-51 0 -94 5t-80 22l-109 -138 zM338 578q0 -141 30.5 -191.5t102.5 -50.5t102.5 50t30.5 192v172q0 141 -30.5 191t-102.5 50t-102.5 -50t-30.5 -191v-172z" />
<glyph unicode="&#xa5;" horiz-adv-x="851" d="M25 1331h254l100 -389q14 -55 27.5 -124.5t23.5 -135.5q10 66 22.5 135.5t28.5 126.5l101 387h254l-285 -821h184v-111h-186v-120h186v-111h-186v-168h-238v168h-186v111h186v120h-186v111h184z" />
<glyph unicode="&#xa6;" horiz-adv-x="421" d="M123 -246v690h176v-690h-176zM123 723v690h176v-690h-176z" />
<glyph unicode="&#xa7;" d="M82 510q0 72 30.5 134.5t77.5 109.5q-53 47 -76.5 106.5t-23.5 145.5q0 180 90 265t275 85q106 0 178 -21.5t116 -67.5t63 -117t19 -171h-239q0 92 -31 127t-106 35q-72 0 -99.5 -38t-27.5 -99q0 -39 7 -66t25.5 -45.5t50 -30.5t81.5 -22q98 -20 164.5 -47t107.5 -66 t59.5 -95t18.5 -134q0 -72 -31 -134.5t-78 -109.5q53 -47 77 -106.5t24 -145.5q0 -180 -90.5 -265t-274.5 -85q-106 0 -178 21.5t-116 67.5t-63.5 116.5t-19.5 171.5h240q0 -92 30.5 -127t106.5 -35q72 0 99.5 38t27.5 99q0 39 -7 65.5t-25.5 45t-50.5 31t-81 22.5 q-98 20 -164.5 47t-107.5 65.5t-59.5 95t-18.5 134.5zM303 545q0 -43 11.5 -73t42 -53.5t84 -43t137.5 -41.5q18 25 30.5 54.5t12.5 74.5q0 43 -12.5 72.5t-43 52t-84 43t-135.5 43.5q-18 -25 -30.5 -54.5t-12.5 -74.5z" />
<glyph unicode="&#xa8;" horiz-adv-x="571" d="M51 1147v215h197v-215h-197zM326 1147v215h194v-215h-194z" />
<glyph unicode="&#xa9;" horiz-adv-x="1265" d="M100 516v303q0 135 33 245t99.5 185.5t168 116.5t238.5 41q272 0 405.5 -157.5t133.5 -430.5v-303q0 -272 -133.5 -430t-405.5 -158q-137 0 -238.5 41t-168 117t-99.5 185.5t-33 244.5zM264 524q0 -231 92.5 -333.5t282.5 -102.5t282.5 102.5t92.5 333.5v287 q0 229 -92.5 332.5t-282.5 103.5t-282.5 -103.5t-92.5 -332.5v-287zM393 623v92q0 92 14.5 154.5t45 100.5t76.5 54t112 16q119 0 178.5 -56t59.5 -206h-156q0 76 -20.5 99.5t-61.5 23.5q-53 0 -70.5 -39t-17.5 -133v-121q0 -100 19.5 -137t68.5 -37q41 0 61.5 25.5 t20.5 97.5h156q0 -78 -15.5 -128t-46.5 -80t-75 -42t-101 -12q-66 0 -112 15.5t-76.5 53t-45 101t-14.5 158.5z" />
<glyph unicode="&#xaa;" horiz-adv-x="745" d="M72 737q0 102 51 165t168 73l168 14v82q0 63 -18.5 90t-69.5 27q-49 0 -66.5 -25.5t-17.5 -83.5h-191q0 137 63.5 207t211.5 70q154 0 218 -71t64 -214v-555h-149l-25 59q-41 -41 -86 -62t-98 -21q-111 0 -167 66t-56 179zM260 758q0 -47 19.5 -70.5t48.5 -23.5 q35 0 68.5 17t62.5 52v146l-133 -21q-31 -4 -48.5 -31.5t-17.5 -68.5z" />
<glyph unicode="&#xab;" horiz-adv-x="858" d="M61 512l205 399h191l-209 -399l209 -399h-191zM401 512l205 399h191l-209 -399l209 -399h-191z" />
<glyph unicode="&#xac;" horiz-adv-x="808" d="M82 641v180h668v-530h-172v350h-496z" />
<glyph unicode="&#xad;" horiz-adv-x="575" d="M82 465v213h412v-213h-412z" />
<glyph unicode="&#xae;" horiz-adv-x="1265" d="M100 516v303q0 135 33 245t99.5 185.5t168 116.5t238.5 41q272 0 405.5 -157.5t133.5 -430.5v-303q0 -272 -133.5 -430t-405.5 -158q-137 0 -238.5 41t-168 117t-99.5 185.5t-33 244.5zM264 524q0 -231 92.5 -333.5t282.5 -102.5t282.5 102.5t92.5 333.5v287 q0 229 -92.5 332.5t-282.5 103.5t-282.5 -103.5t-92.5 -332.5v-287zM412 303v729h243q119 0 173.5 -50t54.5 -187q0 -90 -34 -138.5t-75 -78.5l121 -275h-162l-98 250h-72v-250h-151zM563 684h96q68 0 68 107q0 55 -15.5 80.5t-56.5 25.5h-92v-213z" />
<glyph unicode="&#xaf;" horiz-adv-x="522" d="M61 1167v164h400v-164h-400z" />
<glyph unicode="&#xb0;" horiz-adv-x="604" d="M45 1028q0 94 16.5 157.5t48 101.5t81 53.5t114.5 15.5q63 0 112.5 -15.5t81 -53.5t48 -101.5t16.5 -157.5q0 -96 -16.5 -158.5t-48 -100.5t-81 -53.5t-112.5 -15.5q-66 0 -115 15.5t-80.5 53.5t-48 100.5t-16.5 158.5zM213 1028q0 -55 6 -91t17.5 -56.5t28.5 -27.5 t40 -7t40 7t28.5 27.5t17.5 56.5t6 91t-6 91t-17.5 56.5t-28.5 27.5t-40 7t-40 -7t-28.5 -27.5t-17.5 -56.5t-6 -91z" />
<glyph unicode="&#xb1;" horiz-adv-x="808" d="M82 0v180h668v-180h-668zM82 625v180h248v332h172v-332h248v-180h-248v-332h-172v332h-248z" />
<glyph unicode="&#xb2;" horiz-adv-x="526" d="M82 797v77q0 59 16.5 98.5t42 67t55 46t55 38t42 42t16.5 57.5q0 94 -51 94t-51 -94h-125q0 106 45 153t131 47q102 0 140 -55t38 -143q0 -51 -16.5 -84t-41 -56.5t-53 -41t-53 -36t-42 -43t-17.5 -61.5h231v-106h-362z" />
<glyph unicode="&#xb3;" horiz-adv-x="530" d="M82 977h125q0 -84 57 -84q31 0 44.5 22.5t13.5 61.5q0 57 -19.5 70.5t-34.5 13.5h-63v90h57q23 0 36 15.5t13 64.5q0 35 -10 60.5t-39 25.5q-55 0 -55 -86h-121q0 94 40 143t136 49q51 0 85 -14t54.5 -40t27.5 -59.5t7 -72.5q0 -41 -16.5 -75t-50.5 -54q80 -41 80 -135 q0 -80 -38 -133.5t-145 -53.5q-100 0 -142 45.5t-42 145.5z" />
<glyph unicode="&#xb4;" horiz-adv-x="417" d="M61 1147l62 237h233l-127 -237h-168z" />
<glyph unicode="&#xb6;" horiz-adv-x="1224" d="M92 836q0 143 27.5 239t80 152.5t129.5 80t175 23.5h524v-1679h-168v1511h-104v-1511h-168v696h-88q-203 0 -305.5 117t-102.5 371z" />
<glyph unicode="&#xb7;" horiz-adv-x="409" d="M82 532v287h246v-287h-246z" />
<glyph unicode="&#xb8;" horiz-adv-x="462" d="M61 -311h123q68 0 68 61q0 63 -68 64h-67l49 186h119l-27 -92q59 -10 101 -45t42 -113q0 -94 -50 -139t-161 -45h-129v123z" />
<glyph unicode="&#xb9;" horiz-adv-x="401" d="M82 1307v71l129 35h88v-616h-127v510h-90z" />
<glyph unicode="&#xba;" horiz-adv-x="733" d="M72 870v105q0 109 18.5 182.5t55 117.5t92 62.5t129.5 18.5q72 0 127 -18.5t92 -62.5t56.5 -118t19.5 -182v-105q0 -109 -19.5 -180.5t-56.5 -116.5t-92.5 -63t-126.5 -18q-74 0 -129.5 18t-92 63t-55 117t-18.5 180zM264 854q0 -115 23.5 -155t79.5 -40q55 0 78.5 40 t23.5 155v137q0 115 -23.5 156t-78.5 41t-79 -41t-24 -156v-137z" />
<glyph unicode="&#xbb;" horiz-adv-x="854" d="M61 113l209 399l-209 399h191l205 -399l-205 -399h-191zM401 113l209 399l-209 399h191l205 -399l-205 -399h-191z" />
<glyph unicode="&#xbc;" horiz-adv-x="989" d="M82 0l676 1331h131l-676 -1331h-131zM84 1225v71l129 35h88v-616h-127v510h-90zM508 127v94l184 395h156v-387h59v-102h-59v-127h-123v127h-217zM612 229h113v258z" />
<glyph unicode="&#xbd;" horiz-adv-x="1015" d="M82 0l676 1331h131l-676 -1331h-131zM84 1225v71l129 35h88v-616h-127v510h-90zM571 0v78q0 59 16.5 98t42 66.5t55.5 46t55.5 38t42 42t16.5 57.5q0 94 -51 94t-52 -94h-125q0 106 45.5 153.5t131.5 47.5q102 0 140 -55.5t38 -143.5q0 -51 -16.5 -84t-41 -56.5 t-53.5 -41t-53.5 -35.5t-42 -43t-17.5 -62h232v-106h-363z" />
<glyph unicode="&#xbe;" horiz-adv-x="1019" d="M82 895h125q0 -84 57 -84q31 0 44.5 22.5t13.5 61.5q0 57 -19.5 70.5t-34.5 13.5h-63v90h57q23 0 36 15.5t13 64.5q0 35 -10 60.5t-39 25.5q-55 0 -55 -86h-121q0 94 40 143t136 49q51 0 85 -14t54.5 -39.5t27.5 -59.5t7 -73q0 -41 -16.5 -74.5t-50.5 -54.5 q80 -41 80 -135q0 -80 -38 -133t-145 -53q-100 0 -142 45t-42 145zM113 0l675 1331h132l-676 -1331h-131zM539 127v94l184 395h156v-387h59v-102h-59v-127h-123v127h-217zM643 229h113v258z" />
<glyph unicode="&#xbf;" horiz-adv-x="862" d="M72 59q0 106 18.5 180t53 122.5t86 75t116.5 38.5l12 141h158l27 -327q-76 0 -122 -9.5t-70.5 -35t-33 -70.5t-8.5 -115q0 -55 10.5 -88.5t28 -52t40 -26t48.5 -7.5q29 0 52.5 6.5t41 24.5t27.5 52t10 89h234q0 -205 -85 -297t-280 -92q-193 0 -278.5 94.5t-85.5 296.5z M315 737v287h246v-287h-246z" />
<glyph unicode="&#xc0;" horiz-adv-x="868" d="M20 0l265 1331h299l264 -1331h-244l-43 262h-254l-43 -262h-244zM225 1691h234l61 -237h-168zM342 475h184l-61 371q-10 72 -17.5 131t-13.5 121q-6 -61 -13 -120.5t-18 -131.5z" />
<glyph unicode="&#xc1;" horiz-adv-x="868" d="M20 0l265 1331h299l264 -1331h-244l-43 262h-254l-43 -262h-244zM342 475h184l-61 371q-10 72 -17.5 131t-13.5 121q-6 -61 -13 -120.5t-18 -131.5zM346 1454l62 237h233l-127 -237h-168z" />
<glyph unicode="&#xc2;" horiz-adv-x="868" d="M20 0l265 1331h299l264 -1331h-244l-43 262h-254l-43 -262h-244zM211 1454l95 237h258l94 -237h-162l-61 104l-60 -104h-164zM342 475h184l-61 371q-10 72 -17.5 131t-13.5 121q-6 -61 -13 -120.5t-18 -131.5z" />
<glyph unicode="&#xc3;" horiz-adv-x="868" d="M20 0l265 1331h299l264 -1331h-244l-43 262h-254l-43 -262h-244zM172 1446q0 131 39 181t119 50q39 0 65.5 -12t47 -27.5t37 -28t39.5 -12.5q39 0 38 68h140q0 -129 -37 -180.5t-119 -51.5q-39 0 -65.5 12.5t-46 28t-37 27.5t-37.5 12q-43 0 -43 -67h-140zM342 475h184 l-61 371q-10 72 -17.5 131t-13.5 121q-6 -61 -13 -120.5t-18 -131.5z" />
<glyph unicode="&#xc4;" horiz-adv-x="868" d="M20 0l265 1331h299l264 -1331h-244l-43 262h-254l-43 -262h-244zM198 1454v215h197v-215h-197zM342 475h184l-61 371q-10 72 -17.5 131t-13.5 121q-6 -61 -13 -120.5t-18 -131.5zM473 1454v215h194v-215h-194z" />
<glyph unicode="&#xc5;" horiz-adv-x="868" d="M20 0l265 1331h299l264 -1331h-244l-43 262h-254l-43 -262h-244zM249 1610q0 92 49.5 139t135.5 47t135 -47t49 -139t-49 -140.5t-135 -48.5t-135.5 48t-49.5 141zM342 475h184l-61 371q-10 72 -17.5 131t-13.5 121q-6 -61 -13 -120.5t-18 -131.5zM374 1610q0 -84 60 -84 q59 0 59 84q0 81 -59 81t-60 -81z" />
<glyph unicode="&#xc6;" horiz-adv-x="1333" d="M20 0l467 1331h775v-217h-406v-332h352v-213h-352v-352h406v-217h-644v262h-258l-81 -262h-259zM430 475h188v639q-12 -68 -33.5 -141.5t-37.5 -126.5z" />
<glyph unicode="&#xc7;" horiz-adv-x="880" d="M72 432v469q0 240 90 347.5t287 107.5q195 0 282.5 -99.5t87.5 -328.5h-233q0 117 -31 164t-106 47q-141 0 -142 -213v-520q1 -213 142 -213q74 0 105.5 46t31.5 164h233q0 -213 -73.5 -312t-239.5 -114l-21 -69q59 -10 101.5 -45t42.5 -113q0 -94 -50.5 -139t-160.5 -45 h-129v123h123q68 0 67 61q0 63 -67 64h-68l43 163q-166 16 -240.5 125t-74.5 330z" />
<glyph unicode="&#xc8;" horiz-adv-x="817" d="M102 0v1331h643v-217h-405v-332h352v-213h-352v-352h405v-217h-643zM229 1691h234l61 -237h-168z" />
<glyph unicode="&#xc9;" horiz-adv-x="817" d="M102 0v1331h643v-217h-405v-332h352v-213h-352v-352h405v-217h-643zM350 1454l62 237h233l-127 -237h-168z" />
<glyph unicode="&#xca;" horiz-adv-x="817" d="M102 0v1331h643v-217h-405v-332h352v-213h-352v-352h405v-217h-643zM221 1454l95 237h258l94 -237h-162l-61 104l-60 -104h-164z" />
<glyph unicode="&#xcb;" horiz-adv-x="817" d="M102 0v1331h643v-217h-405v-332h352v-213h-352v-352h405v-217h-643zM209 1454v215h197v-215h-197zM484 1454v215h194v-215h-194z" />
<glyph unicode="&#xcc;" horiz-adv-x="442" d="M10 1691h234l61 -237h-168zM102 0v1331h238v-1331h-238z" />
<glyph unicode="&#xcd;" horiz-adv-x="442" d="M102 0v1331h238v-1331h-238zM141 1454l62 237h233l-127 -237h-168z" />
<glyph unicode="&#xce;" horiz-adv-x="442" d="M0 1454l95 237h258l94 -237h-162l-61 104l-60 -104h-164zM102 0v1331h238v-1331h-238z" />
<glyph unicode="&#xcf;" horiz-adv-x="442" d="M-10 1454v215h197v-215h-197zM102 0v1331h238v-1331h-238zM265 1454v215h194v-215h-194z" />
<glyph unicode="&#xd0;" horiz-adv-x="927" d="M10 590v172h92v569h357q98 0 173 -18.5t125 -69.5t74.5 -143t24.5 -238v-389q0 -145 -24.5 -237.5t-74.5 -144.5t-125 -71.5t-173 -19.5h-357v590h-92zM340 217h115q51 0 82.5 13.5t50 43t24.5 78.5t6 121v395q0 70 -7 117t-25.5 76t-50 41t-80.5 12h-115v-352h139v-172 h-139v-373z" />
<glyph unicode="&#xd1;" horiz-adv-x="968" d="M102 0v1331h285l176 -624q25 -86 47.5 -175.5t40.5 -171.5q-2 45 -5 95.5t-5 97.5t-3 89t-1 71v618h229v-1331h-284l-176 625q-25 86 -47.5 175t-41.5 171q2 -47 5.5 -96.5t5.5 -96.5t3 -89t1 -71v-618h-230zM221 1446q0 131 39 181t119 50q39 0 65.5 -12t47 -27.5 t37 -28t39.5 -12.5q39 0 38 68h140q0 -129 -37 -180.5t-119 -51.5q-39 0 -65.5 12.5t-46 28t-37 27.5t-37.5 12q-43 0 -43 -67h-140z" />
<glyph unicode="&#xd2;" d="M72 428v475q0 231 90 342t295 111t296 -109.5t91 -343.5v-475q0 -231 -91 -342t-296 -111t-295 111t-90 342zM245 1691h234l61 -237h-168zM309 420q0 -117 35 -172t113 -55t113.5 55t35.5 172v491q0 117 -35.5 172.5t-113.5 55.5q-147 0 -148 -226v-493z" />
<glyph unicode="&#xd3;" d="M72 428v475q0 231 90 342t295 111t296 -109.5t91 -343.5v-475q0 -231 -91 -342t-296 -111t-295 111t-90 342zM309 420q0 -117 35 -172t113 -55t113.5 55t35.5 172v491q0 117 -35.5 172.5t-113.5 55.5q-147 0 -148 -226v-493zM378 1454l62 237h233l-127 -237h-168z" />
<glyph unicode="&#xd4;" d="M72 428v475q0 231 90 342t295 111t296 -109.5t91 -343.5v-475q0 -231 -91 -342t-296 -111t-295 111t-90 342zM233 1454l95 237h258l94 -237h-162l-61 104l-60 -104h-164zM309 420q0 -117 35 -172t113 -55t113.5 55t35.5 172v491q0 117 -35.5 172.5t-113.5 55.5 q-147 0 -148 -226v-493z" />
<glyph unicode="&#xd5;" d="M72 428v475q0 231 90 342t295 111t296 -109.5t91 -343.5v-475q0 -231 -91 -342t-296 -111t-295 111t-90 342zM194 1446q0 131 39 181t119 50q39 0 65.5 -12t47 -27.5t37 -28t39.5 -12.5q39 0 38 68h140q0 -129 -37 -180.5t-119 -51.5q-39 0 -65.5 12.5t-46 28t-37 27.5 t-37.5 12q-43 0 -43 -67h-140zM309 420q0 -117 35 -172t113 -55t113.5 55t35.5 172v491q0 117 -35.5 172.5t-113.5 55.5q-147 0 -148 -226v-493z" />
<glyph unicode="&#xd6;" d="M72 428v475q0 231 90 342t295 111t296 -109.5t91 -343.5v-475q0 -231 -91 -342t-296 -111t-295 111t-90 342zM223 1454v215h197v-215h-197zM309 420q0 -117 35 -172t113 -55t113.5 55t35.5 172v491q0 117 -35.5 172.5t-113.5 55.5q-147 0 -148 -226v-493zM498 1454v215 h194v-215h-194z" />
<glyph unicode="&#xd7;" horiz-adv-x="927" d="M61 281l281 282l-281 281l119 119l283 -281l280 281l121 -119l-280 -281l282 -282l-121 -121l-282 282l-283 -282z" />
<glyph unicode="&#xd8;" d="M72 428v475q0 231 90 342t295 111q119 0 205 -41l24 57h143l-63 -147q78 -109 78 -322v-475q0 -231 -91 -342t-296 -111q-61 0 -112.5 10.5t-92.5 28.5l-23 -55h-143l61 147q-76 109 -75 322zM309 485l256 605q-37 49 -108 49q-147 0 -148 -226v-428zM348 242 q37 -49 109 -49q78 0 113.5 55t35.5 172v426z" />
<glyph unicode="&#xd9;" horiz-adv-x="954" d="M102 424v907h238v-923q0 -111 30.5 -162t106.5 -51t106.5 51t30.5 162v923h238v-907q0 -129 -23.5 -215t-71.5 -138.5t-118 -74t-162 -21.5t-161.5 21.5t-117.5 74t-72 138.5t-24 215zM260 1691h234l61 -237h-168z" />
<glyph unicode="&#xda;" horiz-adv-x="954" d="M102 424v907h238v-923q0 -111 30.5 -162t106.5 -51t106.5 51t30.5 162v923h238v-907q0 -129 -23.5 -215t-71.5 -138.5t-118 -74t-162 -21.5t-161.5 21.5t-117.5 74t-72 138.5t-24 215zM397 1454l62 237h233l-127 -237h-168z" />
<glyph unicode="&#xdb;" horiz-adv-x="954" d="M102 424v907h238v-923q0 -111 30.5 -162t106.5 -51t106.5 51t30.5 162v923h238v-907q0 -129 -23.5 -215t-71.5 -138.5t-118 -74t-162 -21.5t-161.5 21.5t-117.5 74t-72 138.5t-24 215zM254 1454l95 237h258l94 -237h-162l-61 104l-60 -104h-164z" />
<glyph unicode="&#xdc;" horiz-adv-x="954" d="M102 424v907h238v-923q0 -111 30.5 -162t106.5 -51t106.5 51t30.5 162v923h238v-907q0 -129 -23.5 -215t-71.5 -138.5t-118 -74t-162 -21.5t-161.5 21.5t-117.5 74t-72 138.5t-24 215zM241 1454v215h197v-215h-197zM516 1454v215h194v-215h-194z" />
<glyph unicode="&#xdd;" horiz-adv-x="831" d="M10 1331h254l90 -321q20 -76 36 -146.5t26 -128.5q10 57 25.5 128t35.5 145l90 323h254l-286 -829v-502h-238v502zM337 1454l62 237h233l-127 -237h-168z" />
<glyph unicode="&#xde;" horiz-adv-x="901" d="M102 0v1331h238v-229h121q92 0 163.5 -17.5t119 -65.5t72 -132t24.5 -217q0 -125 -23.5 -208t-70 -132t-117 -69.5t-164.5 -20.5h-125v-240h-238zM340 457h121q72 0 106.5 43t34.5 170q0 123 -33.5 169t-105.5 46h-123v-428z" />
<glyph unicode="&#xdf;" horiz-adv-x="899" d="M92 0v1008q0 207 87 299t245 92q176 0 255 -87t79 -257q0 -117 -50.5 -193t-111.5 -102q123 -29 187.5 -118t64.5 -261q0 -195 -74 -300.5t-252 -105.5q-33 0 -65.5 7.5t-67.5 19.5v213q25 -12 48.5 -20.5t58.5 -8.5q53 0 85.5 47.5t32.5 157.5q0 137 -38.5 190.5 t-139.5 53.5h-39v221h19q51 0 82.5 35t31.5 137q0 78 -24.5 116t-79.5 38t-77.5 -42t-22.5 -114v-1026h-234z" />
<glyph unicode="&#xe0;" horiz-adv-x="864" d="M72 274q0 135 59 210t205 89l217 21v100q0 78 -25.5 111t-87.5 33q-66 0 -89 -33t-23 -105h-230q0 174 78 261.5t262 87.5q188 0 266 -88.5t78 -266.5v-694h-170l-30 78q-106 -102 -242 -103q-135 0 -201.5 79t-66.5 220zM229 1384h234l61 -237h-168zM303 301 q0 -57 21.5 -86t58.5 -29q90 0 170 86v179l-172 -27q-78 -12 -78 -123z" />
<glyph unicode="&#xe1;" horiz-adv-x="864" d="M72 274q0 135 59 210t205 89l217 21v100q0 78 -25.5 111t-87.5 33q-66 0 -89 -33t-23 -105h-230q0 174 78 261.5t262 87.5q188 0 266 -88.5t78 -266.5v-694h-170l-30 78q-106 -102 -242 -103q-135 0 -201.5 79t-66.5 220zM303 301q0 -57 21.5 -86t58.5 -29q90 0 170 86 v179l-172 -27q-78 -12 -78 -123zM358 1147l62 237h233l-127 -237h-168z" />
<glyph unicode="&#xe2;" horiz-adv-x="864" d="M72 274q0 135 59 210t205 89l217 21v100q0 78 -25.5 111t-87.5 33q-66 0 -89 -33t-23 -105h-230q0 174 78 261.5t262 87.5q188 0 266 -88.5t78 -266.5v-694h-170l-30 78q-106 -102 -242 -103q-135 0 -201.5 79t-66.5 220zM208 1147l95 237h258l94 -237h-162l-61 104 l-60 -104h-164zM303 301q0 -57 21.5 -86t58.5 -29q90 0 170 86v179l-172 -27q-78 -12 -78 -123z" />
<glyph unicode="&#xe3;" horiz-adv-x="864" d="M72 274q0 135 59 210t205 89l217 21v100q0 78 -25.5 111t-87.5 33q-66 0 -89 -33t-23 -105h-230q0 174 78 261.5t262 87.5q188 0 266 -88.5t78 -266.5v-694h-170l-30 78q-106 -102 -242 -103q-135 0 -201.5 79t-66.5 220zM170 1139q0 131 39 181t119 50q39 0 65.5 -12 t47 -27.5t37 -28t39.5 -12.5q39 0 38 68h140q0 -129 -37 -180.5t-119 -51.5q-39 0 -65.5 12.5t-46 28t-37 27.5t-37.5 12q-43 0 -43 -67h-140zM303 301q0 -57 21.5 -86t58.5 -29q90 0 170 86v179l-172 -27q-78 -12 -78 -123z" />
<glyph unicode="&#xe4;" horiz-adv-x="864" d="M72 274q0 135 59 210t205 89l217 21v100q0 78 -25.5 111t-87.5 33q-66 0 -89 -33t-23 -105h-230q0 174 78 261.5t262 87.5q188 0 266 -88.5t78 -266.5v-694h-170l-30 78q-106 -102 -242 -103q-135 0 -201.5 79t-66.5 220zM196 1147v215h197v-215h-197zM303 301 q0 -57 21.5 -86t58.5 -29q90 0 170 86v179l-172 -27q-78 -12 -78 -123zM471 1147v215h194v-215h-194z" />
<glyph unicode="&#xe5;" horiz-adv-x="864" d="M72 274q0 135 59 210t205 89l217 21v100q0 78 -25.5 111t-87.5 33q-66 0 -89 -33t-23 -105h-230q0 174 78 261.5t262 87.5q188 0 266 -88.5t78 -266.5v-694h-170l-30 78q-106 -102 -242 -103q-135 0 -201.5 79t-66.5 220zM247 1303q0 92 49.5 139t135.5 47t135 -47 t49 -139t-49 -140.5t-135 -48.5t-135.5 48t-49.5 141zM303 301q0 -57 21.5 -86t58.5 -29q90 0 170 86v179l-172 -27q-78 -12 -78 -123zM372 1303q0 -84 60 -84q59 0 59 84q0 81 -59 81t-60 -81z" />
<glyph unicode="&#xe6;" horiz-adv-x="1320" d="M72 285q0 154 77.5 233.5t231.5 79.5h172v96q0 78 -25.5 111t-87.5 33q-66 0 -89 -33t-23 -105h-230q0 174 78 261.5t262 87.5q84 0 142.5 -18.5t97.5 -53.5q80 72 237 72q86 0 150.5 -21.5t108 -76t65 -145.5t21.5 -233v-147h-480q0 -119 25.5 -180.5t107.5 -61.5 q84 0 155 11.5t159 27.5v-209q-74 -16 -151 -27.5t-161 -11.5q-86 0 -148 20.5t-105 67.5q-88 -88 -252 -88q-94 0 -159 22.5t-105 62.5t-57 97.5t-17 127.5zM299 305q0 -68 33 -93.5t88 -25.5q82 0 107.5 60.5t25.5 179.5h-154q-47 0 -73.5 -34t-26.5 -87zM780 598h258 q0 74 -8 121t-24.5 73.5t-40 37t-52.5 10.5q-78 0 -105.5 -54.5t-27.5 -187.5z" />
<glyph unicode="&#xe7;" horiz-adv-x="837" d="M72 446v132q0 137 22.5 228t66.5 144.5t111.5 76t159.5 22.5q82 0 146.5 -17.5t108.5 -60.5t66.5 -118t22.5 -187h-229q0 106 -30 140t-85 34q-78 0 -104.5 -54.5t-26.5 -187.5v-172q0 -70 6 -117t21.5 -74.5t41 -39t62.5 -11.5q57 0 86 35t29 139h229 q0 -102 -19.5 -171.5t-56 -114.5t-90 -66.5t-121.5 -28.5l-20 -69q59 -10 101 -45t42 -113q0 -94 -50 -139t-161 -45h-129v123h123q68 0 68 61q0 63 -68 64h-67l43 163q-78 6 -134.5 34t-93.5 83.5t-54 142.5t-17 209z" />
<glyph unicode="&#xe8;" horiz-adv-x="827" d="M61 451v127q0 137 22.5 228t67 144.5t112 76t159.5 22.5q86 0 150.5 -21.5t107.5 -76t64.5 -145.5t21.5 -233v-147h-479q0 -119 25.5 -180.5t107.5 -61.5q84 0 154.5 11.5t158.5 27.5v-209q-74 -16 -150.5 -27.5t-160.5 -11.5q-90 0 -157.5 21.5t-113 76t-68 145.5 t-22.5 233zM215 1384h234l61 -237h-168zM287 598h258q0 74 -8.5 121t-24.5 73.5t-39.5 37t-52.5 10.5q-78 0 -105.5 -54.5t-27.5 -187.5z" />
<glyph unicode="&#xe9;" horiz-adv-x="827" d="M61 451v127q0 137 22.5 228t67 144.5t112 76t159.5 22.5q86 0 150.5 -21.5t107.5 -76t64.5 -145.5t21.5 -233v-147h-479q0 -119 25.5 -180.5t107.5 -61.5q84 0 154.5 11.5t158.5 27.5v-209q-74 -16 -150.5 -27.5t-160.5 -11.5q-90 0 -157.5 21.5t-113 76t-68 145.5 t-22.5 233zM287 598h258q0 74 -8.5 121t-24.5 73.5t-39.5 37t-52.5 10.5q-78 0 -105.5 -54.5t-27.5 -187.5zM333 1147l62 237h233l-127 -237h-168z" />
<glyph unicode="&#xea;" horiz-adv-x="827" d="M61 451v127q0 137 22.5 228t67 144.5t112 76t159.5 22.5q86 0 150.5 -21.5t107.5 -76t64.5 -145.5t21.5 -233v-147h-479q0 -119 25.5 -180.5t107.5 -61.5q84 0 154.5 11.5t158.5 27.5v-209q-74 -16 -150.5 -27.5t-160.5 -11.5q-90 0 -157.5 21.5t-113 76t-68 145.5 t-22.5 233zM194 1147l95 237h258l94 -237h-162l-61 104l-60 -104h-164zM287 598h258q0 74 -8.5 121t-24.5 73.5t-39.5 37t-52.5 10.5q-78 0 -105.5 -54.5t-27.5 -187.5z" />
<glyph unicode="&#xeb;" horiz-adv-x="827" d="M61 451v127q0 137 22.5 228t67 144.5t112 76t159.5 22.5q86 0 150.5 -21.5t107.5 -76t64.5 -145.5t21.5 -233v-147h-479q0 -119 25.5 -180.5t107.5 -61.5q84 0 154.5 11.5t158.5 27.5v-209q-74 -16 -150.5 -27.5t-160.5 -11.5q-90 0 -157.5 21.5t-113 76t-68 145.5 t-22.5 233zM182 1147v215h197v-215h-197zM287 598h258q0 74 -8.5 121t-24.5 73.5t-39.5 37t-52.5 10.5q-78 0 -105.5 -54.5t-27.5 -187.5zM457 1147v215h194v-215h-194z" />
<glyph unicode="&#xec;" horiz-adv-x="413" d="M0 1384h234l61 -237h-168zM92 0v1024h230v-1024h-230z" />
<glyph unicode="&#xed;" horiz-adv-x="413" d="M92 0v1024h230v-1024h-230zM124 1147l62 237h233l-127 -237h-168z" />
<glyph unicode="&#xee;" horiz-adv-x="413" d="M-15 1147l95 237h258l94 -237h-162l-61 104l-60 -104h-164zM92 0v1024h230v-1024h-230z" />
<glyph unicode="&#xef;" horiz-adv-x="413" d="M-25 1147v215h197v-215h-197zM92 0v1024h230v-1024h-230zM250 1147v215h194v-215h-194z" />
<glyph unicode="&#xf0;" horiz-adv-x="872" d="M66 446v105q0 131 21.5 222t63.5 146.5t105 80t150 24.5q63 0 114 -29q-10 39 -25.5 76t-33.5 74l-115 -37l-35 100l99 31q-18 33 -40 65.5t-46 67.5h256l41 -63l114 37l37 -101l-100 -33q63 -137 91 -297.5t28 -365.5v-103q0 -137 -25 -228t-71 -144.5t-112.5 -76 t-152.5 -22.5q-90 0 -157.5 22.5t-113.5 76t-69.5 144.5t-23.5 228zM295 426q0 -141 32.5 -191.5t100.5 -50.5q66 0 99.5 50.5t33.5 191.5v145q0 72 -9 118t-25.5 74t-41 38t-57.5 10q-35 0 -59.5 -10t-41 -38t-24.5 -74t-8 -118v-145z" />
<glyph unicode="&#xf1;" horiz-adv-x="870" d="M92 0v1024h170l31 -78q63 59 123.5 81t124.5 22q66 0 111.5 -18.5t75.5 -60.5t43 -112t13 -170v-688h-229v680q0 92 -19.5 125t-72.5 33q-31 0 -69 -20.5t-72 -59.5v-758h-230zM186 1139q0 131 39 181t119 50q39 0 65.5 -12t47 -27.5t37 -28t39.5 -12.5q39 0 38 68h140 q0 -129 -37 -180.5t-119 -51.5q-39 0 -65.5 12.5t-46 28t-37 27.5t-37.5 12q-43 0 -43 -67h-140z" />
<glyph unicode="&#xf2;" horiz-adv-x="847" d="M61 446v132q0 137 22.5 227t68 144.5t114 77t158.5 22.5t158.5 -22.5t113.5 -77t67.5 -144.5t22.5 -227v-132q0 -137 -22.5 -228t-67.5 -144.5t-112.5 -76t-159.5 -22.5t-159.5 22.5t-113 76t-68 144.5t-22.5 228zM208 1384h234l61 -237h-168zM291 426 q0 -141 30.5 -191.5t102.5 -50.5t102.5 50.5t30.5 191.5v172q0 141 -30.5 191.5t-102.5 50.5t-102.5 -50.5t-30.5 -191.5v-172z" />
<glyph unicode="&#xf3;" horiz-adv-x="847" d="M61 446v132q0 137 22.5 227t68 144.5t114 77t158.5 22.5t158.5 -22.5t113.5 -77t67.5 -144.5t22.5 -227v-132q0 -137 -22.5 -228t-67.5 -144.5t-112.5 -76t-159.5 -22.5t-159.5 22.5t-113 76t-68 144.5t-22.5 228zM291 426q0 -141 30.5 -191.5t102.5 -50.5t102.5 50.5 t30.5 191.5v172q0 141 -30.5 191.5t-102.5 50.5t-102.5 -50.5t-30.5 -191.5v-172zM337 1147l62 237h233l-127 -237h-168z" />
<glyph unicode="&#xf4;" horiz-adv-x="847" d="M61 446v132q0 137 22.5 227t68 144.5t114 77t158.5 22.5t158.5 -22.5t113.5 -77t67.5 -144.5t22.5 -227v-132q0 -137 -22.5 -228t-67.5 -144.5t-112.5 -76t-159.5 -22.5t-159.5 22.5t-113 76t-68 144.5t-22.5 228zM200 1147l95 237h258l94 -237h-162l-61 104l-60 -104 h-164zM291 426q0 -141 30.5 -191.5t102.5 -50.5t102.5 50.5t30.5 191.5v172q0 141 -30.5 191.5t-102.5 50.5t-102.5 -50.5t-30.5 -191.5v-172z" />
<glyph unicode="&#xf5;" horiz-adv-x="847" d="M61 446v132q0 137 22.5 227t68 144.5t114 77t158.5 22.5t158.5 -22.5t113.5 -77t67.5 -144.5t22.5 -227v-132q0 -137 -22.5 -228t-67.5 -144.5t-112.5 -76t-159.5 -22.5t-159.5 22.5t-113 76t-68 144.5t-22.5 228zM161 1139q0 131 39 181t119 50q39 0 65.5 -12t47 -27.5 t37 -28t39.5 -12.5q39 0 38 68h140q0 -129 -37 -180.5t-119 -51.5q-39 0 -65.5 12.5t-46 28t-37 27.5t-37.5 12q-43 0 -43 -67h-140zM291 426q0 -141 30.5 -191.5t102.5 -50.5t102.5 50.5t30.5 191.5v172q0 141 -30.5 191.5t-102.5 50.5t-102.5 -50.5t-30.5 -191.5v-172z " />
<glyph unicode="&#xf6;" horiz-adv-x="847" d="M61 446v132q0 137 22.5 227t68 144.5t114 77t158.5 22.5t158.5 -22.5t113.5 -77t67.5 -144.5t22.5 -227v-132q0 -137 -22.5 -228t-67.5 -144.5t-112.5 -76t-159.5 -22.5t-159.5 22.5t-113 76t-68 144.5t-22.5 228zM188 1147v215h197v-215h-197zM291 426 q0 -141 30.5 -191.5t102.5 -50.5t102.5 50.5t30.5 191.5v172q0 141 -30.5 191.5t-102.5 50.5t-102.5 -50.5t-30.5 -191.5v-172zM463 1147v215h194v-215h-194z" />
<glyph unicode="&#xf7;" horiz-adv-x="825" d="M82 473v180h668v-180h-668zM324 135v209h186v-209h-186zM324 782v209h186v-209h-186z" />
<glyph unicode="&#xf8;" horiz-adv-x="847" d="M61 446v132q0 137 22.5 227t68 144.5t114 77t158.5 22.5q53 0 97 -7.5t81 -23.5l23 47h129l-58 -117q45 -55 67.5 -145t22.5 -225v-132q0 -137 -22.5 -228t-67.5 -144.5t-112.5 -76t-159.5 -22.5q-104 0 -180 29l-21 -45h-129l56 117q-45 53 -67 143t-22 227zM291 371 l213 444q-31 25 -80 25q-72 0 -102.5 -50.5t-30.5 -191.5v-172v-55zM342 209q27 -25 82 -25q72 0 102.5 50.5t30.5 191.5v172v28.5t-2 26.5z" />
<glyph unicode="&#xf9;" horiz-adv-x="876" d="M92 336v688h230v-680q0 -92 19 -125t73 -33q31 0 68.5 20.5t72.5 59.5v758h229v-1024h-170l-30 78q-63 -59 -124 -81t-124 -22q-66 0 -112 18.5t-75.5 60.5t-43 110.5t-13.5 171.5zM217 1384h234l61 -237h-168z" />
<glyph unicode="&#xfa;" horiz-adv-x="876" d="M92 336v688h230v-680q0 -92 19 -125t73 -33q31 0 68.5 20.5t72.5 59.5v758h229v-1024h-170l-30 78q-63 -59 -124 -81t-124 -22q-66 0 -112 18.5t-75.5 60.5t-43 110.5t-13.5 171.5zM360 1147l62 237h233l-127 -237h-168z" />
<glyph unicode="&#xfb;" horiz-adv-x="876" d="M92 336v688h230v-680q0 -92 19 -125t73 -33q31 0 68.5 20.5t72.5 59.5v758h229v-1024h-170l-30 78q-63 -59 -124 -81t-124 -22q-66 0 -112 18.5t-75.5 60.5t-43 110.5t-13.5 171.5zM215 1147l95 237h258l94 -237h-162l-61 104l-60 -104h-164z" />
<glyph unicode="&#xfc;" horiz-adv-x="876" d="M92 336v688h230v-680q0 -92 19 -125t73 -33q31 0 68.5 20.5t72.5 59.5v758h229v-1024h-170l-30 78q-63 -59 -124 -81t-124 -22q-66 0 -112 18.5t-75.5 60.5t-43 110.5t-13.5 171.5zM203 1147v215h197v-215h-197zM478 1147v215h194v-215h-194z" />
<glyph unicode="&#xfd;" horiz-adv-x="784" d="M10 1024h246l143 -705q33 164 63 351.5t64 353.5h248l-295 -1151q-18 -68 -41.5 -116t-58.5 -78.5t-86 -44t-125 -13.5q-20 0 -58 6t-63 17v213q29 -10 60.5 -16.5t54.5 -6.5q41 0 67.5 23.5t40.5 83.5l15 57zM307 1147l62 237h233l-127 -237h-168z" />
<glyph unicode="&#xfe;" horiz-adv-x="880" d="M92 -354v1726h230v-401q41 33 92 55.5t114 22.5q61 0 112.5 -16.5t89.5 -62.5t58.5 -129t20.5 -216v-226q0 -133 -21.5 -215t-58.5 -129t-88 -63.5t-113 -16.5q-47 0 -100 18.5t-106 59.5v-407h-230zM322 274q31 -39 71.5 -64.5t83.5 -25.5q51 0 77 40t26 157v262 q0 117 -26 157t-77 40q-43 0 -84 -26t-71 -64v-476z" />
<glyph unicode="&#xff;" horiz-adv-x="784" d="M10 1024h246l143 -705q33 164 63 351.5t64 353.5h248l-295 -1151q-18 -68 -41.5 -116t-58.5 -78.5t-86 -44t-125 -13.5q-20 0 -58 6t-63 17v213q29 -10 60.5 -16.5t54.5 -6.5q41 0 67.5 23.5t40.5 83.5l15 57zM157 1147v215h197v-215h-197zM432 1147v215h194v-215h-194z " />
<glyph unicode="&#x152;" horiz-adv-x="1288" d="M72 453v426q0 231 90 341.5t295 110.5h760v-217h-390v-332h336v-213h-336v-352h390v-217h-760q-205 0 -295 110.5t-90 342.5zM309 444q0 -117 35 -172t113 -55h133v897h-133q-78 0 -113 -54t-35 -171v-445z" />
<glyph unicode="&#x153;" horiz-adv-x="1323" d="M61 446v132q0 137 22.5 227t68 144.5t114 77t158.5 22.5q78 0 139.5 -16.5t104.5 -57.5q45 41 106.5 57.5t143.5 16.5q86 0 150.5 -21.5t107.5 -76t64.5 -145.5t21.5 -233v-147h-480v-6q0 -117 25.5 -176.5t107.5 -59.5q84 0 155 11.5t159 27.5v-209q-74 -16 -151 -27.5 t-160 -11.5q-80 0 -141.5 16.5t-106.5 55.5q-43 -39 -104.5 -55.5t-141.5 -16.5q-92 0 -159.5 22.5t-113 76t-68 144.5t-22.5 228zM291 426q0 -141 30.5 -191.5t102.5 -50.5t102.5 50.5t30.5 191.5v172q0 141 -30.5 191.5t-102.5 50.5t-102.5 -50.5t-30.5 -191.5v-172z M782 598h258q0 74 -8 121t-24.5 73.5t-40 37t-52.5 10.5q-78 0 -105.5 -54.5t-27.5 -187.5z" />
<glyph unicode="&#x178;" horiz-adv-x="831" d="M10 1331h254l90 -321q20 -76 36 -146.5t26 -128.5q10 57 25.5 128t35.5 145l90 323h254l-286 -829v-502h-238v502zM180 1454v215h197v-215h-197zM455 1454v215h194v-215h-194z" />
<glyph unicode="&#x2c6;" horiz-adv-x="569" d="M61 1147l95 237h258l94 -237h-162l-61 104l-60 -104h-164z" />
<glyph unicode="&#x2dc;" horiz-adv-x="647" d="M61 1139q0 131 39 181t119 50q39 0 65.5 -12t47 -27.5t37 -28t39.5 -12.5q39 0 38 68h140q0 -129 -37 -180.5t-119 -51.5q-39 0 -65.5 12.5t-46 28t-37 27.5t-37.5 12q-43 0 -43 -67h-140z" />
<glyph unicode="&#x2000;" horiz-adv-x="898" />
<glyph unicode="&#x2001;" horiz-adv-x="1796" />
<glyph unicode="&#x2002;" horiz-adv-x="898" />
<glyph unicode="&#x2003;" horiz-adv-x="1796" />
<glyph unicode="&#x2004;" horiz-adv-x="598" />
<glyph unicode="&#x2005;" horiz-adv-x="449" />
<glyph unicode="&#x2006;" horiz-adv-x="299" />
<glyph unicode="&#x2007;" horiz-adv-x="299" />
<glyph unicode="&#x2008;" horiz-adv-x="224" />
<glyph unicode="&#x2009;" horiz-adv-x="359" />
<glyph unicode="&#x200a;" horiz-adv-x="99" />
<glyph unicode="&#x2010;" horiz-adv-x="575" d="M82 465v213h412v-213h-412z" />
<glyph unicode="&#x2011;" horiz-adv-x="575" d="M82 465v213h412v-213h-412z" />
<glyph unicode="&#x2012;" horiz-adv-x="575" d="M82 465v213h412v-213h-412z" />
<glyph unicode="&#x2013;" horiz-adv-x="761" d="M82 465v213h598v-213h-598z" />
<glyph unicode="&#x2014;" horiz-adv-x="1079" d="M82 475v193h915v-193h-915z" />
<glyph unicode="&#x2018;" horiz-adv-x="425" d="M82 1331h242v-626h-156z" />
<glyph unicode="&#x2019;" horiz-adv-x="425" d="M102 705v626h242l-86 -626h-156z" />
<glyph unicode="&#x201a;" horiz-adv-x="425" d="M102 -266v626h242l-86 -626h-156z" />
<glyph unicode="&#x201c;" horiz-adv-x="737" d="M82 1331h242v-626h-156zM403 1331h242v-626h-156z" />
<glyph unicode="&#x201d;" horiz-adv-x="747" d="M102 705v626h242l-86 -626h-156zM424 705v626h242l-86 -626h-156z" />
<glyph unicode="&#x201e;" horiz-adv-x="747" d="M102 -266v626h242l-86 -626h-156zM424 -266v626h242l-86 -626h-156z" />
<glyph unicode="&#x2022;" horiz-adv-x="692" d="M51 625v86q0 111 17.5 181.5t54.5 110t92 55t133 15.5t134.5 -15.5t93 -55t54 -110.5t17.5 -181v-86q0 -111 -17.5 -181.5t-54 -111.5t-93 -56.5t-134.5 -15.5t-133 15.5t-92 56.5t-54.5 111.5t-17.5 181.5z" />
<glyph unicode="&#x2026;" horiz-adv-x="1116" d="M92 0v287h246v-287h-246zM436 0v287h246v-287h-246zM778 0v287h246v-287h-246z" />
<glyph unicode="&#x202f;" horiz-adv-x="359" />
<glyph unicode="&#x2039;" horiz-adv-x="534" d="M61 512l205 399h191l-209 -399l209 -399h-191z" />
<glyph unicode="&#x203a;" horiz-adv-x="534" d="M61 113l209 399l-209 399h191l205 -399l-205 -399h-191z" />
<glyph unicode="&#x205f;" horiz-adv-x="449" />
<glyph unicode="&#x20ac;" horiz-adv-x="958" d="M43 494v108h100v127h-100v109h100v45q0 254 93.5 363.5t281.5 109.5q197 0 283 -100.5t86 -329.5h-234q0 115 -31.5 164t-103.5 49q-66 0 -103.5 -48.5t-37.5 -164.5v-88h217l-14 -109h-203v-127h182l-18 -108h-164v-86q0 -117 37.5 -166t103.5 -49q72 0 103.5 46 t31.5 167h234q0 -227 -86 -329t-283 -102t-286 115t-89 363v41h-100z" />
<glyph unicode="&#x2122;" horiz-adv-x="970" d="M82 1245v86h299v-86h-98v-444h-103v444h-98zM430 801v530h135l56 -239q10 -41 16 -83t12 -81q6 39 12.5 81t16.5 83l55 239h135v-530h-96v196q0 53 1 107.5t5 101.5q-10 -47 -20 -100t-23 -107l-45 -198h-82l-45 198q-12 53 -22.5 105.5t-20.5 99.5q6 -96 6 -207v-196 h-96z" />
<glyph unicode="&#x25fc;" horiz-adv-x="1024" d="M0 0v1024h1024v-1024h-1024z" />
</font>
</defs>
</svg>
